<svg width="1584" height="396" viewBox="0 0 1584 396" fill="none" xmlns="http://www.w3.org/2000/svg">
<rect width="1584" height="396" fill="#F5F5F5"/>
<g id="Awesome banner" clip-path="url(#clip0_0_1)">
<rect width="1584" height="396" fill="url(#paint0_linear_0_1)"/>
<ellipse id="Ellipse 2" cx="323" cy="64" rx="285" ry="288" fill="url(#paint1_linear_0_1)" fill-opacity="0.1"/>
<g id="copyright">
<path d="M75.95 334.52L72.30 334.52L72.30 311.16L77.20 311.16L83.70 330.04Q83.60 329.02 83.50 327.62Q83.41 326.23 83.33 324.79Q83.25 323.35 83.25 322.23L83.25 311.16L86.90 311.16L86.90 334.52L82 334.52L75.57 315.64Q75.63 316.57 75.73 317.88Q75.82 319.19 75.89 320.57Q75.95 321.94 75.95 323.10L75.95 334.52M98.80 334.84Q96.46 334.84 94.67 333.96Q92.88 333.08 91.89 331.53Q90.90 329.98 90.90 327.93Q90.90 325.78 92.13 324.18Q93.36 322.58 95.34 322.17L95.34 322.10Q93.65 321.75 92.61 320.38Q91.57 319 91.57 317.11Q91.57 315.26 92.48 313.85Q93.39 312.44 95.02 311.64Q96.66 310.84 98.80 310.84Q100.94 310.84 102.59 311.64Q104.24 312.44 105.15 313.85Q106.06 315.26 106.06 317.11Q106.06 319 105.01 320.38Q103.95 321.75 102.26 322.10L102.26 322.17Q104.24 322.58 105.47 324.18Q106.70 325.78 106.70 327.93Q106.70 329.98 105.71 331.53Q104.72 333.08 102.93 333.96Q101.14 334.84 98.80 334.84M98.80 320.73Q100.30 320.73 101.23 319.82Q102.16 318.90 102.16 317.46Q102.16 315.99 101.23 315.08Q100.30 314.17 98.80 314.17Q97.30 314.17 96.37 315.08Q95.44 315.99 95.44 317.46Q95.44 318.90 96.37 319.82Q97.30 320.73 98.80 320.73M98.80 331.45Q100.56 331.45 101.68 330.42Q102.80 329.40 102.80 327.74Q102.80 326.04 101.68 325Q100.56 323.96 98.80 323.96Q97.04 323.96 95.92 325Q94.80 326.04 94.80 327.74Q94.80 329.40 95.92 330.42Q97.04 331.45 98.80 331.45M114.35 334.52L110.70 334.52L110.70 311.16L115.60 311.16L122.10 330.04Q122 329.02 121.90 327.62Q121.81 326.23 121.73 324.79Q121.65 323.35 121.65 322.23L121.65 311.16L125.30 311.16L125.30 334.52L120.40 334.52L113.97 315.64Q114.03 316.57 114.13 317.88Q114.22 319.19 114.29 320.57Q114.35 321.94 114.35 323.10" fill="white" fill-opacity="0.9"/>
<path d="M161.48 325.24L151.24 325.24L151.24 322.68L161.48 322.68" fill="white" fill-opacity="0.9"/>
<path d="M195.02 334.84Q191.82 334.84 189.96 333.05Q188.11 331.26 188.11 328.12L188.11 317.56Q188.11 314.42 189.96 312.63Q191.82 310.84 195.02 310.84Q198.15 310.84 200.01 312.65Q201.87 314.46 201.87 317.56L198.99 317.56Q198.99 315.58 197.95 314.50Q196.91 313.43 195.02 313.43Q193.13 313.43 192.06 314.50Q190.99 315.58 190.99 317.56L190.99 328.12Q190.99 330.10 192.06 331.18Q193.13 332.25 195.02 332.25Q196.91 332.25 197.95 331.18Q198.99 330.10 198.99 328.12L201.87 328.12Q201.87 331.22 200.01 333.03Q198.15 334.84 195.02 334.84" fill="white" fill-opacity="0.9"/>
<path d="M213.96 334.84Q210.83 334.84 209 333.02Q207.18 331.19 207.18 327.80L207.18 317.88Q207.18 314.49 209 312.66Q210.83 310.84 213.96 310.84Q217.10 310.84 218.92 312.66Q220.75 314.49 220.75 317.85L220.75 327.80Q220.75 331.19 218.92 333.02Q217.10 334.84 213.96 334.84M213.96 332.25Q215.85 332.25 216.86 331.18Q217.87 330.10 217.87 328.12L217.87 317.56Q217.87 315.58 216.86 314.50Q215.85 313.43 213.96 313.43Q212.11 313.43 211.08 314.50Q210.06 315.58 210.06 317.56L210.06 328.12Q210.06 330.10 211.08 331.18Q212.11 332.25 213.96 332.25" fill="white" fill-opacity="0.9"/>
<path d="M228.65 334.52L225.87 334.52L225.87 311.16L230.12 311.16L233.10 321.27L236.20 311.16L240.46 311.16L240.46 334.52L237.67 334.52L237.67 323.48Q237.67 321.91 237.72 319.88Q237.77 317.85 237.87 315.77Q237.96 313.69 238.09 312.02L234.31 324.09L231.82 324.09L228.20 312.31Q228.46 314.68 228.55 317.50Q228.65 320.31 228.65 323.48" fill="white" fill-opacity="0.9"/>
<path d="M247.85 334.52L245.07 334.52L245.07 311.16L249.32 311.16L252.30 321.27L255.40 311.16L259.66 311.16L259.66 334.52L256.87 334.52L256.87 323.48Q256.87 321.91 256.92 319.88Q256.97 317.85 257.07 315.77Q257.16 313.69 257.29 312.02L253.51 324.09L251.02 324.09L247.40 312.31Q247.66 314.68 247.75 317.50Q247.85 320.31 247.85 323.48" fill="white" fill-opacity="0.9"/>
<path d="M271.56 334.84Q268.30 334.84 266.57 333.03Q264.84 331.22 264.84 328.12L264.84 311.16L267.72 311.16L267.72 328.12Q267.72 330.04 268.67 331.16Q269.61 332.28 271.56 332.28Q273.48 332.28 274.44 331.16Q275.40 330.04 275.40 328.12L275.40 311.16L278.28 311.16L278.28 328.12Q278.28 331.26 276.57 333.05Q274.86 334.84 271.56 334.84" fill="white" fill-opacity="0.9"/>
<path d="M286.83 334.52L284.04 334.52L284.04 311.16L287.88 311.16L295.02 331.16Q294.95 330.36 294.87 329.19Q294.79 328.02 294.75 326.73Q294.70 325.43 294.70 324.28L294.70 311.16L297.48 311.16L297.48 334.52L293.64 334.52L286.54 314.52Q286.60 315.29 286.67 316.46Q286.73 317.62 286.78 318.92Q286.83 320.22 286.83 321.40" fill="white" fill-opacity="0.9"/>
<path d="M316.20 334.52L303.72 334.52L303.72 331.90L308.49 331.90L308.49 313.78L303.72 313.78L303.72 311.16L316.20 311.16L316.20 313.78L311.43 313.78L311.43 331.90L316.20 331.90" fill="white" fill-opacity="0.9"/>
<path d="M330.60 334.52L327.72 334.52L327.72 313.78L321.32 313.78L321.32 311.16L337 311.16L337 313.78L330.60 313.78" fill="white" fill-opacity="0.9"/>
<path d="M349.80 334.52L346.92 334.52L346.92 325.78L339.88 311.16L342.95 311.16L347.50 320.76Q347.88 321.56 348.11 322.12Q348.33 322.68 348.39 322.94Q348.46 322.68 348.70 322.12Q348.94 321.56 349.32 320.76L353.87 311.16L356.84 311.16L349.80 325.78" fill="white" fill-opacity="0.9"/>
<path d="M382.83 334.52L380.04 334.52L380.04 311.16L383.88 311.16L391.02 331.16Q390.95 330.36 390.87 329.19Q390.79 328.02 390.75 326.73Q390.70 325.43 390.70 324.28L390.70 311.16L393.48 311.16L393.48 334.52L389.64 334.52L382.54 314.52Q382.60 315.29 382.67 316.46Q382.73 317.62 382.78 318.92Q382.83 320.22 382.83 321.40" fill="white" fill-opacity="0.9"/>
<path d="M405.96 334.84Q402.83 334.84 401 333.02Q399.18 331.19 399.18 327.80L399.18 317.88Q399.18 314.49 401 312.66Q402.83 310.84 405.96 310.84Q409.10 310.84 410.92 312.66Q412.75 314.49 412.75 317.85L412.75 327.80Q412.75 331.19 410.92 333.02Q409.10 334.84 405.96 334.84M405.96 332.25Q407.85 332.25 408.86 331.18Q409.87 330.10 409.87 328.12L409.87 317.56Q409.87 315.58 408.86 314.50Q407.85 313.43 405.96 313.43Q404.11 313.43 403.08 314.50Q402.06 315.58 402.06 317.56L402.06 328.12Q402.06 330.10 403.08 331.18Q404.11 332.25 405.96 332.25" fill="white" fill-opacity="0.9"/>
<path d="M424.55 334.52L418.51 334.52L418.51 311.16L424.55 311.16Q426.83 311.16 428.47 312.02Q430.12 312.89 431.03 314.46Q431.95 316.02 431.95 318.17L431.95 327.48Q431.95 329.62 431.03 331.21Q430.12 332.79 428.47 333.66Q426.83 334.52 424.55 334.52M421.39 313.72L421.39 331.96L424.55 331.96Q426.67 331.96 427.87 330.78Q429.07 329.59 429.07 327.48L429.07 318.17Q429.07 316.09 427.87 314.90Q426.67 313.72 424.55 313.72" fill="white" fill-opacity="0.9"/>
<path d="M451.40 334.52L437.96 334.52L437.96 311.16L451.40 311.16L451.40 313.78L440.81 313.78L440.81 321.02L450.28 321.02L450.28 323.58L440.81 323.58L440.81 331.90L451.40 331.90" fill="white" fill-opacity="0.9"/>
<path d="M463.69 334.84Q460.30 334.84 458.28 333.05Q456.27 331.26 456.27 328.12L459.15 328.12Q459.15 330.07 460.39 331.18Q461.64 332.28 463.69 332.28Q465.67 332.28 466.86 331.13Q468.04 329.98 468.04 328.12Q468.04 326.71 467.29 325.67Q466.54 324.63 465.13 324.25L461.58 323.26Q459.37 322.62 458.11 320.97Q456.84 319.32 456.84 317.08Q456.84 315.22 457.67 313.82Q458.51 312.41 460.01 311.62Q461.51 310.84 463.47 310.84Q465.45 310.84 466.97 311.62Q468.49 312.41 469.35 313.80Q470.22 315.19 470.22 317.02L467.34 317.02Q467.34 315.42 466.25 314.41Q465.16 313.40 463.47 313.40Q461.77 313.40 460.71 314.41Q459.66 315.42 459.66 317.02Q459.66 318.30 460.35 319.21Q461.03 320.12 462.28 320.47L465.93 321.50Q468.27 322.14 469.56 323.91Q470.86 325.69 470.86 328.12Q470.86 331.19 468.91 333.02Q466.95 334.84 463.69 334.84" fill="white" fill-opacity="0.9"/>
</g>
<path d="M82.48 197.64L72.40 197.64L72.40 180.12L82.48 180.12L82.48 182.09L74.54 182.09L74.54 187.51L81.64 187.51L81.64 189.43L74.54 189.43L74.54 195.67L82.48 195.67" fill="white" fill-opacity="0.7"/>
<path d="M90.45 197.88Q88.41 197.88 87.21 196.74Q86.01 195.60 86.01 193.75Q86.01 192.53 86.56 191.62Q87.11 190.70 88.10 190.19Q89.08 189.67 90.35 189.67L94.43 189.67L94.43 188.64Q94.43 186.07 91.62 186.07Q90.38 186.07 89.61 186.53Q88.84 186.98 88.79 187.80L86.63 187.80Q86.75 186.24 88.08 185.22Q89.42 184.20 91.62 184.20Q94.02 184.20 95.31 185.35Q96.59 186.50 96.59 188.57L96.59 197.64L94.46 197.64L94.46 195.24L94.41 195.24Q94.22 196.46 93.18 197.17Q92.15 197.88 90.45 197.88M90.98 196.06Q92.56 196.06 93.50 195.29Q94.43 194.52 94.43 193.20L94.43 191.35L90.59 191.35Q89.54 191.35 88.88 191.99Q88.22 192.62 88.22 193.68Q88.22 194.78 88.95 195.42Q89.68 196.06 90.98 196.06" fill="white" fill-opacity="0.7"/>
<path d="M103.65 197.64L101.49 197.64L101.49 184.44L103.65 184.44L103.65 186.96L103.70 186.96Q103.86 185.69 104.78 184.94Q105.69 184.20 107.22 184.20Q109.29 184.20 110.40 185.44Q111.52 186.67 111.52 188.95L111.52 190.08L109.36 190.08L109.36 188.95Q109.36 186.07 106.55 186.07Q105.14 186.07 104.39 186.89Q103.65 187.70 103.65 189.24" fill="white" fill-opacity="0.7"/>
<path d="M125.56 197.64L121.72 197.64Q120.09 197.64 119.10 196.69Q118.12 195.74 118.12 194.16L118.12 186.41L114.33 186.41L114.33 184.44L118.12 184.44L118.12 180.72L120.28 180.72L120.28 184.44L125.68 184.44L125.68 186.41L120.28 186.41L120.28 194.16Q120.28 194.83 120.68 195.25Q121.07 195.67 121.72 195.67L125.56 195.67" fill="white" fill-opacity="0.7"/>
<path d="M131.97 197.64L129.81 197.64L129.81 180.12L131.97 180.12L131.97 186.96L131.99 186.96Q132.16 185.64 133.07 184.92Q133.98 184.20 135.50 184.20Q137.49 184.20 138.66 185.42Q139.84 186.65 139.84 188.76L139.84 197.64L137.68 197.64L137.68 189.12Q137.68 187.63 136.92 186.83Q136.17 186.02 134.87 186.02Q133.53 186.02 132.75 186.86Q131.97 187.70 131.97 189.24" fill="white" fill-opacity="0.7"/>
<path d="M150.26 187.32L148.17 187.32L147.98 180.12L150.42 180.12" fill="white" fill-opacity="0.7"/>
<path d="M164.13 197.83L163.07 197.83Q160.86 197.83 159.65 196.84Q158.44 195.84 158.44 194.02L160.60 194.02Q160.60 194.93 161.25 195.44Q161.90 195.96 163.07 195.96L164.13 195.96Q165.33 195.96 165.99 195.43Q166.65 194.90 166.65 193.94Q166.65 192.24 165.09 192.02L161.44 191.50Q160.10 191.30 159.35 190.38Q158.61 189.46 158.61 187.94Q158.61 186.22 159.80 185.23Q160.98 184.25 163.07 184.25L164.13 184.25Q166.05 184.25 167.26 185.20Q168.47 186.14 168.57 187.68L166.38 187.68Q166.34 186.98 165.72 186.53Q165.11 186.07 164.13 186.07L163.07 186.07Q161.97 186.07 161.34 186.58Q160.72 187.08 160.72 187.94Q160.72 189.34 161.99 189.53L165.40 190.01Q168.76 190.49 168.76 193.94Q168.76 195.79 167.55 196.81Q166.34 197.83 164.13 197.83" fill="white" fill-opacity="0.7"/>
<path d="M192.76 201.96L189.06 201.96L189.06 199.99L192.78 199.99Q193.91 199.99 194.56 199.36Q195.21 198.72 195.21 197.64L195.21 196.44L195.26 194.28L195.18 194.28Q194.99 195.46 194.06 196.09Q193.12 196.73 191.70 196.73Q189.66 196.73 188.49 195.43Q187.31 194.14 187.31 191.88L187.31 189.10Q187.31 186.84 188.49 185.52Q189.66 184.20 191.70 184.20Q193.12 184.20 194.06 184.87Q194.99 185.54 195.18 186.72L195.23 186.72L195.23 184.44L197.37 184.44L197.37 197.64Q197.37 199.63 196.13 200.80Q194.90 201.96 192.76 201.96M192.35 194.93Q193.70 194.93 194.46 194.09Q195.23 193.25 195.23 191.76L195.23 189.24Q195.23 187.75 194.46 186.91Q193.70 186.07 192.35 186.07Q190.98 186.07 190.23 186.86Q189.47 187.66 189.47 189L189.47 192Q189.47 193.34 190.23 194.14Q190.98 194.93 192.35 194.93" fill="white" fill-opacity="0.7"/>
<path d="M204.45 197.64L202.29 197.64L202.29 184.44L204.45 184.44L204.45 186.96L204.50 186.96Q204.66 185.69 205.58 184.94Q206.49 184.20 208.02 184.20Q210.09 184.20 211.20 185.44Q212.32 186.67 212.32 188.95L212.32 190.08L210.16 190.08L210.16 188.95Q210.16 186.07 207.35 186.07Q205.94 186.07 205.19 186.89Q204.45 187.70 204.45 189.24" fill="white" fill-opacity="0.7"/>
<path d="M220.05 197.88Q218.01 197.88 216.81 196.74Q215.61 195.60 215.61 193.75Q215.61 192.53 216.16 191.62Q216.71 190.70 217.70 190.19Q218.68 189.67 219.95 189.67L224.03 189.67L224.03 188.64Q224.03 186.07 221.22 186.07Q219.98 186.07 219.21 186.53Q218.44 186.98 218.39 187.80L216.23 187.80Q216.35 186.24 217.68 185.22Q219.02 184.20 221.22 184.20Q223.62 184.20 224.91 185.35Q226.19 186.50 226.19 188.57L226.19 197.64L224.06 197.64L224.06 195.24L224.01 195.24Q223.82 196.46 222.78 197.17Q221.75 197.88 220.05 197.88M220.58 196.06Q222.16 196.06 223.10 195.29Q224.03 194.52 224.03 193.20L224.03 191.35L220.19 191.35Q219.14 191.35 218.48 191.99Q217.82 192.62 217.82 193.68Q217.82 194.78 218.55 195.42Q219.28 196.06 220.58 196.06" fill="white" fill-opacity="0.7"/>
<path d="M237.02 197.64L234.18 197.64L229.70 184.44L232.02 184.44L234.90 193.32Q235.17 194.11 235.36 194.84Q235.55 195.58 235.65 195.98Q235.77 195.58 235.94 194.84Q236.10 194.11 236.34 193.32L239.22 184.44L241.50 184.44" fill="white" fill-opacity="0.7"/>
<path d="M256.12 197.64L244.84 197.64L244.84 195.67L249.52 195.67L249.52 186.41L245.32 186.41L245.32 184.44L251.68 184.44L251.68 195.67L256.12 195.67L256.12 197.64M250.36 182.06Q249.57 182.06 249.11 181.66Q248.66 181.25 248.66 180.55Q248.66 179.83 249.11 179.41Q249.57 178.99 250.36 178.99Q251.15 178.99 251.61 179.41Q252.06 179.83 252.06 180.55Q252.06 181.25 251.61 181.66Q251.15 182.06 250.36 182.06" fill="white" fill-opacity="0.7"/>
<path d="M269.56 197.64L265.72 197.64Q264.09 197.64 263.10 196.69Q262.12 195.74 262.12 194.16L262.12 186.41L258.33 186.41L258.33 184.44L262.12 184.44L262.12 180.72L264.28 180.72L264.28 184.44L269.68 184.44L269.68 186.41L264.28 186.41L264.28 194.16Q264.28 194.83 264.68 195.25Q265.07 195.67 265.72 195.67L269.56 195.67" fill="white" fill-opacity="0.7"/>
<path d="M277.65 197.88Q275.61 197.88 274.41 196.74Q273.21 195.60 273.21 193.75Q273.21 192.53 273.76 191.62Q274.31 190.70 275.30 190.19Q276.28 189.67 277.55 189.67L281.63 189.67L281.63 188.64Q281.63 186.07 278.82 186.07Q277.58 186.07 276.81 186.53Q276.04 186.98 275.99 187.80L273.83 187.80Q273.95 186.24 275.28 185.22Q276.62 184.20 278.82 184.20Q281.22 184.20 282.51 185.35Q283.79 186.50 283.79 188.57L283.79 197.64L281.66 197.64L281.66 195.24L281.61 195.24Q281.42 196.46 280.38 197.17Q279.35 197.88 277.65 197.88M278.18 196.06Q279.76 196.06 280.70 195.29Q281.63 194.52 281.63 193.20L281.63 191.35L277.79 191.35Q276.74 191.35 276.08 191.99Q275.42 192.62 275.42 193.68Q275.42 194.78 276.15 195.42Q276.88 196.06 278.18 196.06" fill="white" fill-opacity="0.7"/>
<path d="M298.36 197.64L294.52 197.64Q292.89 197.64 291.90 196.69Q290.92 195.74 290.92 194.16L290.92 186.41L287.13 186.41L287.13 184.44L290.92 184.44L290.92 180.72L293.08 180.72L293.08 184.44L298.48 184.44L298.48 186.41L293.08 186.41L293.08 194.16Q293.08 194.83 293.48 195.25Q293.87 195.67 294.52 195.67L298.36 195.67" fill="white" fill-opacity="0.7"/>
<path d="M313.72 197.64L302.44 197.64L302.44 195.67L307.12 195.67L307.12 186.41L302.92 186.41L302.92 184.44L309.28 184.44L309.28 195.67L313.72 195.67L313.72 197.64M307.96 182.06Q307.17 182.06 306.71 181.66Q306.26 181.25 306.26 180.55Q306.26 179.83 306.71 179.41Q307.17 178.99 307.96 178.99Q308.75 178.99 309.21 179.41Q309.66 179.83 309.66 180.55Q309.66 181.25 309.21 181.66Q308.75 182.06 307.96 182.06" fill="white" fill-opacity="0.7"/>
<path d="M322 197.83Q319.62 197.83 318.22 196.44Q316.82 195.05 316.82 192.55L316.82 189.53Q316.82 187.01 318.21 185.63Q319.60 184.25 322 184.25Q324.40 184.25 325.79 185.63Q327.18 187.01 327.18 189.53L327.18 192.55Q327.18 195.05 325.78 196.44Q324.38 197.83 322 197.83M322 195.91Q323.42 195.91 324.22 195.12Q325.02 194.33 325.02 192.79L325.02 189.29Q325.02 187.75 324.22 186.96Q323.42 186.17 322 186.17Q320.61 186.17 319.79 186.96Q318.98 187.75 318.98 189.29L318.98 192.79Q318.98 194.33 319.79 195.12Q320.61 195.91 322 195.91" fill="white" fill-opacity="0.7"/>
<path d="M333.57 197.64L331.41 197.64L331.41 184.44L333.57 184.44L333.57 186.96L333.59 186.96Q333.76 185.64 334.67 184.92Q335.58 184.20 337.10 184.20Q339.09 184.20 340.26 185.42Q341.44 186.65 341.44 188.76L341.44 197.64L339.28 197.64L339.28 189.14Q339.28 187.63 338.52 186.83Q337.77 186.02 336.47 186.02Q335.13 186.02 334.35 186.86Q333.57 187.70 333.57 189.24" fill="white" fill-opacity="0.7"/>
<path d="M349.65 197.88Q347.61 197.88 346.41 196.74Q345.21 195.60 345.21 193.75Q345.21 192.53 345.76 191.62Q346.31 190.70 347.30 190.19Q348.28 189.67 349.55 189.67L353.63 189.67L353.63 188.64Q353.63 186.07 350.82 186.07Q349.58 186.07 348.81 186.53Q348.04 186.98 347.99 187.80L345.83 187.80Q345.95 186.24 347.28 185.22Q348.62 184.20 350.82 184.20Q353.22 184.20 354.51 185.35Q355.79 186.50 355.79 188.57L355.79 197.64L353.66 197.64L353.66 195.24L353.61 195.24Q353.42 196.46 352.38 197.17Q351.35 197.88 349.65 197.88M350.18 196.06Q351.76 196.06 352.70 195.29Q353.63 194.52 353.63 193.20L353.63 191.35L349.79 191.35Q348.74 191.35 348.08 191.99Q347.42 192.62 347.42 193.68Q347.42 194.78 348.15 195.42Q348.88 196.06 350.18 196.06" fill="white" fill-opacity="0.7"/>
<path d="M371.20 197.64L367.12 197.64Q365.37 197.64 364.32 196.62Q363.28 195.60 363.28 193.92L363.28 182.09L358.72 182.09L358.72 180.12L365.44 180.12L365.44 193.92Q365.44 194.74 365.90 195.20Q366.35 195.67 367.12 195.67L371.20 195.67" fill="white" fill-opacity="0.7"/>
<path d="M394.12 197.64L391.96 197.64L391.96 188.21L388.12 188.21L388.12 186.24L391.96 186.24L391.96 183.48Q391.96 181.92 392.94 181.02Q393.93 180.12 395.66 180.12L399.52 180.12L399.52 182.09L395.66 182.09Q394.12 182.09 394.12 183.48L394.12 186.24L399.52 186.24L399.52 188.21L394.12 188.21" fill="white" fill-opacity="0.7"/>
<path d="M414.52 197.64L403.24 197.64L403.24 195.67L407.92 195.67L407.92 186.41L403.72 186.41L403.72 184.44L410.08 184.44L410.08 195.67L414.52 195.67L414.52 197.64M408.76 182.06Q407.97 182.06 407.51 181.66Q407.06 181.25 407.06 180.55Q407.06 179.83 407.51 179.41Q407.97 178.99 408.76 178.99Q409.55 178.99 410.01 179.41Q410.46 179.83 410.46 180.55Q410.46 181.25 410.01 181.66Q409.55 182.06 408.76 182.06" fill="white" fill-opacity="0.7"/>
<path d="M422.80 197.88Q420.47 197.88 419.04 196.48Q417.62 195.07 417.62 192.60L417.62 189.48Q417.62 187.01 419.04 185.60Q420.47 184.20 422.80 184.20Q424.36 184.20 425.52 184.82Q426.69 185.45 427.34 186.58Q427.98 187.70 427.98 189.24L427.98 191.59L419.73 191.59L419.73 192.84Q419.73 194.30 420.57 195.16Q421.41 196.01 422.80 196.01Q424 196.01 424.78 195.54Q425.56 195.07 425.73 194.28L427.89 194.28Q427.67 195.94 426.28 196.91Q424.89 197.88 422.80 197.88M419.73 189.24L419.73 189.91L425.87 189.91L425.87 189.24Q425.87 187.68 425.07 186.83Q424.26 185.98 422.80 185.98Q421.34 185.98 420.53 186.83Q419.73 187.68 419.73 189.24" fill="white" fill-opacity="0.7"/>
<path d="M443.20 197.64L439.12 197.64Q437.37 197.64 436.32 196.62Q435.28 195.60 435.28 193.92L435.28 182.09L430.72 182.09L430.72 180.12L437.44 180.12L437.44 193.92Q437.44 194.74 437.90 195.20Q438.35 195.67 439.12 195.67L443.20 195.67" fill="white" fill-opacity="0.7"/>
<path d="M450.83 197.88Q448.86 197.88 447.68 196.56Q446.49 195.24 446.49 192.98L446.49 189.12Q446.49 186.84 447.66 185.52Q448.84 184.20 450.83 184.20Q452.32 184.20 453.29 184.94Q454.26 185.69 454.46 186.96L454.48 186.96L454.43 183.96L454.43 180.12L456.59 180.12L456.59 197.64L454.43 197.64L454.43 195.12L454.41 195.12Q454.24 196.42 453.28 197.15Q452.32 197.88 450.83 197.88M451.55 196.01Q452.90 196.01 453.66 195.17Q454.43 194.33 454.43 192.84L454.43 189.24Q454.43 187.75 453.66 186.91Q452.90 186.07 451.55 186.07Q450.18 186.07 449.42 186.78Q448.65 187.49 448.65 189.12L448.65 192.96Q448.65 194.57 449.42 195.29Q450.18 196.01 451.55 196.01" fill="white" fill-opacity="0.7"/>
<path d="M486.52 197.64L475.24 197.64L475.24 195.67L479.92 195.67L479.92 186.41L475.72 186.41L475.72 184.44L482.08 184.44L482.08 195.67L486.52 195.67L486.52 197.64M480.76 182.06Q479.97 182.06 479.51 181.66Q479.06 181.25 479.06 180.55Q479.06 179.83 479.51 179.41Q479.97 178.99 480.76 178.99Q481.55 178.99 482.01 179.41Q482.46 179.83 482.46 180.55Q482.46 181.25 482.01 181.66Q481.55 182.06 480.76 182.06" fill="white" fill-opacity="0.7"/>
<path d="M495.33 197.83L494.27 197.83Q492.06 197.83 490.85 196.84Q489.64 195.84 489.64 194.02L491.80 194.02Q491.80 194.93 492.45 195.44Q493.10 195.96 494.27 195.96L495.33 195.96Q496.53 195.96 497.19 195.43Q497.85 194.90 497.85 193.94Q497.85 192.24 496.29 192.02L492.64 191.50Q491.30 191.30 490.55 190.38Q489.81 189.46 489.81 187.94Q489.81 186.22 491 185.23Q492.18 184.25 494.27 184.25L495.33 184.25Q497.25 184.25 498.46 185.20Q499.67 186.14 499.77 187.68L497.58 187.68Q497.54 186.98 496.92 186.53Q496.31 186.07 495.33 186.07L494.27 186.07Q493.17 186.07 492.54 186.58Q491.92 187.08 491.92 187.94Q491.92 189.34 493.19 189.53L496.60 190.01Q499.96 190.49 499.96 193.94Q499.96 195.79 498.75 196.81Q497.54 197.83 495.33 197.83" fill="white" fill-opacity="0.7"/>
<path d="M520.77 197.64L518.61 197.64L518.61 184.44L520.77 184.44L520.77 186.96L520.79 186.96Q520.96 185.64 521.87 184.92Q522.78 184.20 524.30 184.20Q526.29 184.20 527.46 185.42Q528.64 186.65 528.64 188.76L528.64 197.64L526.48 197.64L526.48 189.14Q526.48 187.63 525.72 186.83Q524.97 186.02 523.67 186.02Q522.33 186.02 521.55 186.86Q520.77 187.70 520.77 189.24" fill="white" fill-opacity="0.7"/>
<path d="M538 197.83Q535.62 197.83 534.22 196.44Q532.82 195.05 532.82 192.55L532.82 189.53Q532.82 187.01 534.21 185.63Q535.60 184.25 538 184.25Q540.40 184.25 541.79 185.63Q543.18 187.01 543.18 189.53L543.18 192.55Q543.18 195.05 541.78 196.44Q540.38 197.83 538 197.83M538 195.91Q539.42 195.91 540.22 195.12Q541.02 194.33 541.02 192.79L541.02 189.29Q541.02 187.75 540.22 186.96Q539.42 186.17 538 186.17Q536.61 186.17 535.79 186.96Q534.98 187.75 534.98 189.29L534.98 192.79Q534.98 194.33 535.79 195.12Q536.61 195.91 538 195.91" fill="white" fill-opacity="0.7"/>
<path d="M549.57 197.64L547.41 197.64L547.41 184.44L549.57 184.44L549.57 186.96L549.59 186.96Q549.76 185.64 550.67 184.92Q551.58 184.20 553.10 184.20Q555.09 184.20 556.26 185.42Q557.44 186.65 557.44 188.76L557.44 197.64L555.28 197.64L555.28 189.14Q555.28 187.63 554.52 186.83Q553.77 186.02 552.47 186.02Q551.13 186.02 550.35 186.86Q549.57 187.70 549.57 189.24" fill="white" fill-opacity="0.7"/>
<path d="M570.64 190.68L562.96 190.68L562.96 188.76L570.64 188.76" fill="white" fill-opacity="0.7"/>
<path d="M581.18 197.88Q578.90 197.88 577.53 196.52Q576.16 195.17 576.16 192.84L576.16 184.44L578.32 184.44L578.32 192.84Q578.32 194.28 579.09 195.13Q579.86 195.98 581.18 195.98Q582.52 195.98 583.30 195.13Q584.08 194.28 584.08 192.84L584.08 184.44L586.24 184.44L586.24 192.84Q586.24 195.17 584.85 196.52Q583.46 197.88 581.18 197.88" fill="white" fill-opacity="0.7"/>
<path d="M592.77 197.64L590.61 197.64L590.61 184.44L592.77 184.44L592.77 186.96L592.79 186.96Q592.96 185.64 593.87 184.92Q594.78 184.20 596.30 184.20Q598.29 184.20 599.46 185.42Q600.64 186.65 600.64 188.76L600.64 197.64L598.48 197.64L598.48 189.14Q598.48 187.63 597.72 186.83Q596.97 186.02 595.67 186.02Q594.33 186.02 593.55 186.86Q592.77 187.70 592.77 189.24" fill="white" fill-opacity="0.7"/>
<path d="M616.12 197.64L604.84 197.64L604.84 195.67L609.52 195.67L609.52 186.41L605.32 186.41L605.32 184.44L611.68 184.44L611.68 195.67L616.12 195.67L616.12 197.64M610.36 182.06Q609.57 182.06 609.11 181.66Q608.66 181.25 608.66 180.55Q608.66 179.83 609.11 179.41Q609.57 178.99 610.36 178.99Q611.15 178.99 611.61 179.41Q612.06 179.83 612.06 180.55Q612.06 181.25 611.61 181.66Q611.15 182.06 610.36 182.06" fill="white" fill-opacity="0.7"/>
<path d="M624.52 197.64L622.36 197.64L622.36 188.21L618.52 188.21L618.52 186.24L622.36 186.24L622.36 183.48Q622.36 181.92 623.34 181.02Q624.33 180.12 626.06 180.12L629.92 180.12L629.92 182.09L626.06 182.09Q624.52 182.09 624.52 183.48L624.52 186.24L629.92 186.24L629.92 188.21L624.52 188.21" fill="white" fill-opacity="0.7"/>
<path d="M638.80 197.83Q636.42 197.83 635.02 196.44Q633.62 195.05 633.62 192.55L633.62 189.53Q633.62 187.01 635.01 185.63Q636.40 184.25 638.80 184.25Q641.20 184.25 642.59 185.63Q643.98 187.01 643.98 189.53L643.98 192.55Q643.98 195.05 642.58 196.44Q641.18 197.83 638.80 197.83M638.80 195.91Q640.22 195.91 641.02 195.12Q641.82 194.33 641.82 192.79L641.82 189.29Q641.82 187.75 641.02 186.96Q640.22 186.17 638.80 186.17Q637.41 186.17 636.59 186.96Q635.78 187.75 635.78 189.29L635.78 192.79Q635.78 194.33 636.59 195.12Q637.41 195.91 638.80 195.91" fill="white" fill-opacity="0.7"/>
<path d="M650.85 197.64L648.69 197.64L648.69 184.44L650.85 184.44L650.85 186.96L650.90 186.96Q651.06 185.69 651.98 184.94Q652.89 184.20 654.42 184.20Q656.49 184.20 657.60 185.44Q658.72 186.67 658.72 188.95L658.72 190.08L656.56 190.08L656.56 188.95Q656.56 186.07 653.75 186.07Q652.34 186.07 651.59 186.89Q650.85 187.70 650.85 189.24" fill="white" fill-opacity="0.7"/>
<path d="M663.86 197.64L661.84 197.64L661.84 184.44L663.71 184.44L663.71 186.19L663.76 186.19Q663.88 185.30 664.47 184.75Q665.06 184.20 665.97 184.20Q666.83 184.20 667.43 184.70Q668.03 185.21 668.30 186.07L668.32 186.07Q668.49 185.21 669.08 184.70Q669.66 184.20 670.58 184.20Q671.85 184.20 672.60 185.15Q673.36 186.10 673.36 187.61L673.36 197.64L671.34 197.64L671.34 187.58Q671.34 186.79 670.96 186.32Q670.58 185.86 669.90 185.86Q669.26 185.86 668.87 186.31Q668.49 186.77 668.49 187.56L668.49 197.64L666.71 197.64L666.71 187.58Q666.71 186.79 666.33 186.32Q665.94 185.86 665.30 185.86Q664.62 185.86 664.24 186.31Q663.86 186.77 663.86 187.56" fill="white" fill-opacity="0.7"/>
<path d="M682.24 187.80L681.76 187.80Q680.97 187.80 680.46 187.30Q679.96 186.79 679.96 186Q679.96 185.23 680.48 184.72Q680.99 184.20 681.76 184.20L682.24 184.20Q683.01 184.20 683.52 184.72Q684.04 185.23 684.04 186Q684.04 186.79 683.54 187.30Q683.03 187.80 682.24 187.80M681.95 201.48L679.72 201.48L681.04 194.14L683.63 194.14" fill="white" fill-opacity="0.7"/>
<path d="M715.96 197.64L712.12 197.64Q710.49 197.64 709.50 196.69Q708.52 195.74 708.52 194.16L708.52 186.41L704.73 186.41L704.73 184.44L708.52 184.44L708.52 180.72L710.68 180.72L710.68 184.44L716.08 184.44L716.08 186.41L710.68 186.41L710.68 194.16Q710.68 194.83 711.08 195.25Q711.47 195.67 712.12 195.67L715.96 195.67" fill="white" fill-opacity="0.7"/>
<path d="M722.37 197.64L720.21 197.64L720.21 180.12L722.37 180.12L722.37 186.96L722.39 186.96Q722.56 185.64 723.47 184.92Q724.38 184.20 725.90 184.20Q727.89 184.20 729.06 185.42Q730.24 186.65 730.24 188.76L730.24 197.64L728.08 197.64L728.08 189.12Q728.08 187.63 727.32 186.83Q726.57 186.02 725.27 186.02Q723.93 186.02 723.15 186.86Q722.37 187.70 722.37 189.24" fill="white" fill-opacity="0.7"/>
<path d="M739.60 197.88Q737.27 197.88 735.84 196.48Q734.42 195.07 734.42 192.60L734.42 189.48Q734.42 187.01 735.84 185.60Q737.27 184.20 739.60 184.20Q741.16 184.20 742.32 184.82Q743.49 185.45 744.14 186.58Q744.78 187.70 744.78 189.24L744.78 191.59L736.53 191.59L736.53 192.84Q736.53 194.30 737.37 195.16Q738.21 196.01 739.60 196.01Q740.80 196.01 741.58 195.54Q742.36 195.07 742.53 194.28L744.69 194.28Q744.47 195.94 743.08 196.91Q741.69 197.88 739.60 197.88M736.53 189.24L736.53 189.91L742.67 189.91L742.67 189.24Q742.67 187.68 741.87 186.83Q741.06 185.98 739.60 185.98Q738.14 185.98 737.33 186.83Q736.53 187.68 736.53 189.24" fill="white" fill-opacity="0.7"/>
<path d="M768.76 201.96L765.06 201.96L765.06 199.99L768.78 199.99Q769.91 199.99 770.56 199.36Q771.21 198.72 771.21 197.64L771.21 196.44L771.26 194.28L771.18 194.28Q770.99 195.46 770.06 196.09Q769.12 196.73 767.70 196.73Q765.66 196.73 764.49 195.43Q763.31 194.14 763.31 191.88L763.31 189.10Q763.31 186.84 764.49 185.52Q765.66 184.20 767.70 184.20Q769.12 184.20 770.06 184.87Q770.99 185.54 771.18 186.72L771.23 186.72L771.23 184.44L773.37 184.44L773.37 197.64Q773.37 199.63 772.13 200.80Q770.90 201.96 768.76 201.96M768.35 194.93Q769.70 194.93 770.46 194.09Q771.23 193.25 771.23 191.76L771.23 189.24Q771.23 187.75 770.46 186.91Q769.70 186.07 768.35 186.07Q766.98 186.07 766.23 186.86Q765.47 187.66 765.47 189L765.47 192Q765.47 193.34 766.23 194.14Q766.98 194.93 768.35 194.93" fill="white" fill-opacity="0.7"/>
<path d="M782.80 197.88Q780.47 197.88 779.04 196.48Q777.62 195.07 777.62 192.60L777.62 189.48Q777.62 187.01 779.04 185.60Q780.47 184.20 782.80 184.20Q784.36 184.20 785.52 184.82Q786.69 185.45 787.34 186.58Q787.98 187.70 787.98 189.24L787.98 191.59L779.73 191.59L779.73 192.84Q779.73 194.30 780.57 195.16Q781.41 196.01 782.80 196.01Q784 196.01 784.78 195.54Q785.56 195.07 785.73 194.28L787.89 194.28Q787.67 195.94 786.28 196.91Q784.89 197.88 782.80 197.88M779.73 189.24L779.73 189.91L785.87 189.91L785.87 189.24Q785.87 187.68 785.07 186.83Q784.26 185.98 782.80 185.98Q781.34 185.98 780.53 186.83Q779.73 187.68 779.73 189.24" fill="white" fill-opacity="0.7"/>
<path d="M797.20 197.83Q794.82 197.83 793.42 196.44Q792.02 195.05 792.02 192.55L792.02 189.53Q792.02 187.01 793.41 185.63Q794.80 184.25 797.20 184.25Q799.60 184.25 800.99 185.63Q802.38 187.01 802.38 189.53L802.38 192.55Q802.38 195.05 800.98 196.44Q799.58 197.83 797.20 197.83M797.20 195.91Q798.62 195.91 799.42 195.12Q800.22 194.33 800.22 192.79L800.22 189.29Q800.22 187.75 799.42 186.96Q798.62 186.17 797.20 186.17Q795.81 186.17 794.99 186.96Q794.18 187.75 794.18 189.29L794.18 192.79Q794.18 194.33 794.99 195.12Q795.81 195.91 797.20 195.91" fill="white" fill-opacity="0.7"/>
<path d="M817.72 197.64L806.44 197.64L806.44 195.67L811.12 195.67L811.12 186.41L806.92 186.41L806.92 184.44L813.28 184.44L813.28 195.67L817.72 195.67L817.72 197.64M811.96 182.06Q811.17 182.06 810.71 181.66Q810.26 181.25 810.26 180.55Q810.26 179.83 810.71 179.41Q811.17 178.99 811.96 178.99Q812.75 178.99 813.21 179.41Q813.66 179.83 813.66 180.55Q813.66 181.25 813.21 181.66Q812.75 182.06 811.96 182.06" fill="white" fill-opacity="0.7"/>
<path d="M825.23 197.88Q823.26 197.88 822.08 196.56Q820.89 195.24 820.89 192.98L820.89 189.12Q820.89 186.84 822.06 185.52Q823.24 184.20 825.23 184.20Q826.72 184.20 827.69 184.94Q828.66 185.69 828.86 186.96L828.88 186.96L828.83 183.96L828.83 180.12L830.99 180.12L830.99 197.64L828.83 197.64L828.83 195.12L828.81 195.12Q828.64 196.42 827.68 197.15Q826.72 197.88 825.23 197.88M825.95 196.01Q827.30 196.01 828.06 195.17Q828.83 194.33 828.83 192.84L828.83 189.24Q828.83 187.75 828.06 186.91Q827.30 186.07 825.95 186.07Q824.58 186.07 823.82 186.78Q823.05 187.49 823.05 189.12L823.05 192.96Q823.05 194.57 823.82 195.29Q824.58 196.01 825.95 196.01" fill="white" fill-opacity="0.7"/>
<path d="M860.92 197.64L849.64 197.64L849.64 195.67L854.32 195.67L854.32 186.41L850.12 186.41L850.12 184.44L856.48 184.44L856.48 195.67L860.92 195.67L860.92 197.64M855.16 182.06Q854.37 182.06 853.91 181.66Q853.46 181.25 853.46 180.55Q853.46 179.83 853.91 179.41Q854.37 178.99 855.16 178.99Q855.95 178.99 856.41 179.41Q856.86 179.83 856.86 180.55Q856.86 181.25 856.41 181.66Q855.95 182.06 855.16 182.06" fill="white" fill-opacity="0.7"/>
<path d="M869.73 197.83L868.67 197.83Q866.46 197.83 865.25 196.84Q864.04 195.84 864.04 194.02L866.20 194.02Q866.20 194.93 866.85 195.44Q867.50 195.96 868.67 195.96L869.73 195.96Q870.93 195.96 871.59 195.43Q872.25 194.90 872.25 193.94Q872.25 192.24 870.69 192.02L867.04 191.50Q865.70 191.30 864.95 190.38Q864.21 189.46 864.21 187.94Q864.21 186.22 865.40 185.23Q866.58 184.25 868.67 184.25L869.73 184.25Q871.65 184.25 872.86 185.20Q874.07 186.14 874.17 187.68L871.98 187.68Q871.94 186.98 871.32 186.53Q870.71 186.07 869.73 186.07L868.67 186.07Q867.57 186.07 866.94 186.58Q866.32 187.08 866.32 187.94Q866.32 189.34 867.59 189.53L871 190.01Q874.36 190.49 874.36 193.94Q874.36 195.79 873.15 196.81Q871.94 197.83 869.73 197.83" fill="white" fill-opacity="0.7"/>
<path d="M904.12 197.64L892.84 197.64L892.84 195.67L897.52 195.67L897.52 186.41L893.32 186.41L893.32 184.44L899.68 184.44L899.68 195.67L904.12 195.67L904.12 197.64M898.36 182.06Q897.57 182.06 897.11 181.66Q896.66 181.25 896.66 180.55Q896.66 179.83 897.11 179.41Q897.57 178.99 898.36 178.99Q899.15 178.99 899.61 179.41Q900.06 179.83 900.06 180.55Q900.06 181.25 899.61 181.66Q899.15 182.06 898.36 182.06" fill="white" fill-opacity="0.7"/>
<path d="M917.56 197.64L913.72 197.64Q912.09 197.64 911.10 196.69Q910.12 195.74 910.12 194.16L910.12 186.41L906.33 186.41L906.33 184.44L910.12 184.44L910.12 180.72L912.28 180.72L912.28 184.44L917.68 184.44L917.68 186.41L912.28 186.41L912.28 194.16Q912.28 194.83 912.68 195.25Q913.07 195.67 913.72 195.67L917.56 195.67" fill="white" fill-opacity="0.7"/>
<path d="M927.33 197.83L926.27 197.83Q924.06 197.83 922.85 196.84Q921.64 195.84 921.64 194.02L923.80 194.02Q923.80 194.93 924.45 195.44Q925.10 195.96 926.27 195.96L927.33 195.96Q928.53 195.96 929.19 195.43Q929.85 194.90 929.85 193.94Q929.85 192.24 928.29 192.02L924.64 191.50Q923.30 191.30 922.55 190.38Q921.81 189.46 921.81 187.94Q921.81 186.22 923 185.23Q924.18 184.25 926.27 184.25L927.33 184.25Q929.25 184.25 930.46 185.20Q931.67 186.14 931.77 187.68L929.58 187.68Q929.54 186.98 928.92 186.53Q928.31 186.07 927.33 186.07L926.27 186.07Q925.17 186.07 924.54 186.58Q923.92 187.08 923.92 187.94Q923.92 189.34 925.19 189.53L928.60 190.01Q931.96 190.49 931.96 193.94Q931.96 195.79 930.75 196.81Q929.54 197.83 927.33 197.83" fill="white" fill-opacity="0.7"/>
<path d="M956.13 197.83L955.07 197.83Q952.86 197.83 951.65 196.84Q950.44 195.84 950.44 194.02L952.60 194.02Q952.60 194.93 953.25 195.44Q953.90 195.96 955.07 195.96L956.13 195.96Q957.33 195.96 957.99 195.43Q958.65 194.90 958.65 193.94Q958.65 192.24 957.09 192.02L953.44 191.50Q952.10 191.30 951.35 190.38Q950.61 189.46 950.61 187.94Q950.61 186.22 951.80 185.23Q952.98 184.25 955.07 184.25L956.13 184.25Q958.05 184.25 959.26 185.20Q960.47 186.14 960.57 187.68L958.38 187.68Q958.34 186.98 957.72 186.53Q957.11 186.07 956.13 186.07L955.07 186.07Q953.97 186.07 953.34 186.58Q952.72 187.08 952.72 187.94Q952.72 189.34 953.99 189.53L957.40 190.01Q960.76 190.49 960.76 193.94Q960.76 195.79 959.55 196.81Q958.34 197.83 956.13 197.83" fill="white" fill-opacity="0.7"/>
<path d="M967.17 197.64L965.01 197.64L965.01 180.12L967.17 180.12L967.17 186.96L967.19 186.96Q967.36 185.64 968.27 184.92Q969.18 184.20 970.70 184.20Q972.69 184.20 973.86 185.42Q975.04 186.65 975.04 188.76L975.04 197.64L972.88 197.64L972.88 189.12Q972.88 187.63 972.12 186.83Q971.37 186.02 970.07 186.02Q968.73 186.02 967.95 186.86Q967.17 187.70 967.17 189.24" fill="white" fill-opacity="0.7"/>
<path d="M983.25 197.88Q981.21 197.88 980.01 196.74Q978.81 195.60 978.81 193.75Q978.81 192.53 979.36 191.62Q979.91 190.70 980.90 190.19Q981.88 189.67 983.15 189.67L987.23 189.67L987.23 188.64Q987.23 186.07 984.42 186.07Q983.18 186.07 982.41 186.53Q981.64 186.98 981.59 187.80L979.43 187.80Q979.55 186.24 980.88 185.22Q982.22 184.20 984.42 184.20Q986.82 184.20 988.11 185.35Q989.39 186.50 989.39 188.57L989.39 197.64L987.26 197.64L987.26 195.24L987.21 195.24Q987.02 196.46 985.98 197.17Q984.95 197.88 983.25 197.88M983.78 196.06Q985.36 196.06 986.30 195.29Q987.23 194.52 987.23 193.20L987.23 191.35L983.39 191.35Q982.34 191.35 981.68 191.99Q981.02 192.62 981.02 193.68Q981.02 194.78 981.75 195.42Q982.48 196.06 983.78 196.06" fill="white" fill-opacity="0.7"/>
<path d="M995.97 201.96L993.81 201.96L993.81 184.44L995.97 184.44L995.97 186.96L995.99 186.96Q996.16 185.66 997.12 184.93Q998.08 184.20 999.57 184.20Q1001.56 184.20 1002.74 185.51Q1003.91 186.82 1003.91 189.10L1003.91 192.96Q1003.91 195.24 1002.74 196.56Q1001.56 197.88 999.57 197.88Q998.08 197.88 997.12 197.14Q996.16 196.39 995.99 195.12L995.92 195.12L995.97 198.12L995.97 201.96M998.85 196.01Q1000.22 196.01 1000.98 195.29Q1001.75 194.57 1001.75 192.96L1001.75 189.12Q1001.75 187.49 1000.98 186.78Q1000.22 186.07 998.85 186.07Q997.53 186.07 996.75 186.91Q995.97 187.75 995.97 189.24L995.97 192.84Q995.97 194.33 996.75 195.17Q997.53 196.01 998.85 196.01" fill="white" fill-opacity="0.7"/>
<path d="M1013.20 197.88Q1010.87 197.88 1009.44 196.48Q1008.02 195.07 1008.02 192.60L1008.02 189.48Q1008.02 187.01 1009.44 185.60Q1010.87 184.20 1013.20 184.20Q1014.76 184.20 1015.92 184.82Q1017.09 185.45 1017.74 186.58Q1018.38 187.70 1018.38 189.24L1018.38 191.59L1010.13 191.59L1010.13 192.84Q1010.13 194.30 1010.97 195.16Q1011.81 196.01 1013.20 196.01Q1014.40 196.01 1015.18 195.54Q1015.96 195.07 1016.13 194.28L1018.29 194.28Q1018.07 195.94 1016.68 196.91Q1015.29 197.88 1013.20 197.88M1010.13 189.24L1010.13 189.91L1016.27 189.91L1016.27 189.24Q1016.27 187.68 1015.47 186.83Q1014.66 185.98 1013.20 185.98Q1011.74 185.98 1010.93 186.83Q1010.13 187.68 1010.13 189.24" fill="white" fill-opacity="0.7"/>
<path d="M1027.60 197.88Q1026.71 197.88 1026.17 197.35Q1025.63 196.82 1025.63 195.98Q1025.63 195.10 1026.17 194.54Q1026.71 193.99 1027.60 193.99Q1028.49 193.99 1029.03 194.54Q1029.57 195.10 1029.57 195.98Q1029.57 196.82 1029.03 197.35Q1028.49 197.88 1027.60 197.88" fill="white" fill-opacity="0.7"/>
<path d="M76.11 136.06L66.42 136.06L84.56 65.98L97.14 65.98L115.18 136.06L105.49 136.06L101.07 117.82L80.53 117.82L76.11 136.06M87.54 88.92L82.45 109.95L99.15 109.95L94.16 89.02Q92.72 83.26 91.86 79.23Q90.99 75.20 90.80 73.76Q90.61 75.20 89.74 79.23Q88.88 83.26 87.54 88.92M135.15 136.06L126.13 136.06L126.13 65.98L139.57 65.98L148.21 96.22L157.23 65.98L170.77 65.98L170.77 136.06L161.65 136.06L161.65 103.90Q161.65 98.81 161.84 92.62Q162.03 86.43 162.37 80.24Q162.70 74.04 163.09 69.05L152.14 104.96L144.08 104.96L133.52 69.92Q134.38 76.92 134.77 85.52Q135.15 94.11 135.15 103.90L135.15 136.06M227.31 136.06L186.51 136.06L186.51 65.98L227.31 65.98L227.31 74.52L195.92 74.52L195.92 95.36L223.95 95.36L223.95 103.61L195.92 103.61L195.92 127.52L227.31 127.52L227.31 136.06M251.98 136.06L243.06 136.06L243.06 65.98L255.34 65.98L276.27 125.12Q275.98 122.62 275.74 118.92Q275.50 115.23 275.36 111.24Q275.22 107.26 275.22 103.71L275.22 65.98L284.24 65.98L284.24 136.06L271.86 136.06L251.12 76.92Q251.31 79.42 251.50 83.02Q251.70 86.62 251.84 90.56Q251.98 94.49 251.98 97.95L251.98 136.06M326 136.06L316.50 136.06L316.50 74.62L297.49 74.62L297.49 65.98L344.91 65.98L344.91 74.62L326 74.62L326 136.06M378.80 137.02Q368.91 137.02 363.58 131.55Q358.26 126.08 358.26 116.67L358.26 65.98L367.76 65.98L367.76 116.67Q367.76 122.24 370.50 125.40Q373.23 128.57 378.80 128.57Q384.27 128.57 387.10 125.40Q389.94 122.24 389.94 116.67L389.94 65.98L399.44 65.98L399.44 116.67Q399.44 126.17 394.11 131.60Q388.78 137.02 378.80 137.02M423.15 136.06L414.13 136.06L414.13 65.98L427.57 65.98L436.21 96.22L445.23 65.98L458.77 65.98L458.77 136.06L449.65 136.06L449.65 103.90Q449.65 98.81 449.84 92.62Q450.03 86.43 450.37 80.24Q450.70 74.04 451.09 69.05L440.14 104.96L432.08 104.96L421.52 69.92Q422.38 76.92 422.77 85.52Q423.15 94.11 423.15 103.90L423.15 136.06M551.98 137.02Q541.62 137.02 535.47 131.60Q529.33 126.17 529.33 116.67L538.83 116.67Q538.83 122.24 542.38 125.40Q545.94 128.57 551.98 128.57Q557.74 128.57 561.15 125.36Q564.56 122.14 564.56 116.76Q564.56 112.73 562.35 109.71Q560.14 106.68 556.11 105.63L545.74 102.84Q538.93 100.92 534.94 95.88Q530.96 90.84 530.96 83.93Q530.96 78.27 533.50 74Q536.05 69.72 540.66 67.37Q545.26 65.02 551.31 65.02Q557.46 65.02 562.11 67.37Q566.77 69.72 569.36 73.95Q571.95 78.17 571.95 83.74L562.54 83.74Q562.54 79.13 559.42 76.25Q556.30 73.37 551.31 73.37Q546.32 73.37 543.30 76.25Q540.27 79.13 540.27 83.74Q540.27 87.48 542.29 90.03Q544.30 92.57 547.95 93.63L558.61 96.51Q565.81 98.43 569.84 103.85Q573.87 109.28 573.87 116.76Q573.87 122.91 571.18 127.47Q568.50 132.03 563.55 134.52Q558.61 137.02 551.98 137.02M598.35 136.06L588.85 136.06L588.85 65.98L611.60 65.98Q618.32 65.98 623.22 68.57Q628.11 71.16 630.80 75.82Q633.49 80.48 633.49 86.91Q633.49 93.24 630.80 97.90Q628.11 102.56 623.17 105.15Q618.22 107.74 611.60 107.74L598.35 107.74L598.35 136.06M598.35 74.43L598.35 99.29L611.60 99.29Q617.17 99.29 620.43 95.88Q623.70 92.48 623.70 86.91Q623.70 81.24 620.43 77.84Q617.17 74.43 611.60 74.43L598.35 74.43M652.11 136.06L642.42 136.06L660.56 65.98L673.14 65.98L691.18 136.06L681.49 136.06L677.07 117.82L656.53 117.82L652.11 136.06M663.54 88.92L658.45 109.95L675.15 109.95L670.16 89.02Q668.72 83.26 667.86 79.23Q666.99 75.20 666.80 73.76Q666.61 75.20 665.74 79.23Q664.88 83.26 663.54 88.92M725.17 137.02Q715.47 137.02 709.76 131.60Q704.05 126.17 704.05 116.67L704.05 85.28Q704.05 75.87 709.76 70.44Q715.47 65.02 725.17 65.02Q734.77 65.02 740.48 70.49Q746.19 75.96 746.19 85.28L736.69 85.28Q736.69 79.61 733.62 76.54Q730.54 73.47 725.17 73.47Q719.70 73.47 716.62 76.54Q713.55 79.61 713.55 85.28L713.55 116.67Q713.55 122.43 716.62 125.50Q719.70 128.57 725.17 128.57Q730.54 128.57 733.62 125.50Q736.69 122.43 736.69 116.67L746.19 116.67Q746.19 126.08 740.48 131.55Q734.77 137.02 725.17 137.02M803.31 136.06L762.51 136.06L762.51 65.98L803.31 65.98L803.31 74.52L771.92 74.52L771.92 95.36L799.95 95.36L799.95 103.61L771.92 103.61L771.92 127.52L803.31 127.52L803.31 136.06M897.58 137.02Q887.89 137.02 882.18 131.60Q876.46 126.17 876.46 116.67L876.46 85.28Q876.46 75.87 882.18 70.44Q887.89 65.02 897.58 65.02Q907.18 65.02 912.90 70.49Q918.61 75.96 918.61 85.28L909.10 85.28Q909.10 79.61 906.03 76.54Q902.96 73.47 897.58 73.47Q892.11 73.47 889.04 76.54Q885.97 79.61 885.97 85.28L885.97 116.67Q885.97 122.43 889.04 125.50Q892.11 128.57 897.58 128.57Q902.96 128.57 906.03 125.50Q909.10 122.43 909.10 116.67L909.10 107.55L895.47 107.55L895.47 99.10L918.61 99.10L918.61 116.67Q918.61 126.08 912.90 131.55Q907.18 137.02 897.58 137.02M943.95 136.06L934.54 136.06L934.54 65.98L956.24 65.98Q962.67 65.98 967.47 68.52Q972.27 71.07 974.96 75.63Q977.65 80.19 977.65 86.33Q977.65 93.44 974.05 98.52Q970.45 103.61 964.50 105.72L978.61 136.06L968.14 136.06L954.80 106.78L943.95 106.78L943.95 136.06M943.95 74.43L943.95 98.33L956.24 98.33Q961.62 98.33 964.74 95.07Q967.86 91.80 967.86 86.43Q967.86 80.96 964.69 77.69Q961.52 74.43 956.24 74.43L943.95 74.43M997.71 136.06L988.02 136.06L1006.16 65.98L1018.74 65.98L1036.78 136.06L1027.09 136.06L1022.67 117.82L1002.13 117.82L997.71 136.06M1009.14 88.92L1004.05 109.95L1020.75 109.95L1015.76 89.02Q1014.32 83.26 1013.46 79.23Q1012.59 75.20 1012.40 73.76Q1012.21 75.20 1011.34 79.23Q1010.48 83.26 1009.14 88.92M1076.34 136.06L1063.57 136.06L1045.62 65.98L1055.41 65.98L1067.02 113.21Q1068.18 117.72 1068.99 121.90Q1069.81 126.08 1070.19 128.28Q1070.48 126.08 1071.39 121.85Q1072.30 117.63 1073.36 113.12L1084.59 65.98L1094.38 65.98L1076.34 136.06M1146.70 136.06L1108.50 136.06L1108.50 127.42L1122.80 127.42L1122.80 74.62L1108.50 74.62L1108.50 65.98L1146.70 65.98L1146.70 74.62L1132.40 74.62L1132.40 127.42L1146.70 127.42L1146.70 136.06M1190 136.06L1180.50 136.06L1180.50 74.62L1161.49 74.62L1161.49 65.98L1208.91 65.98L1208.91 74.62L1190 74.62L1190 136.06M1247.60 136.06L1238.10 136.06L1238.10 110.04L1217.07 65.98L1227.15 65.98L1240.11 93.63Q1241.26 96.12 1241.98 98.14Q1242.70 100.16 1242.90 101.02Q1243.18 100.16 1243.90 98.14Q1244.62 96.12 1245.87 93.63L1258.74 65.98L1268.53 65.98L1247.60 110.04" fill="url(#paint2_linear_0_1)"/>
<g id="Group 1">
<rect id="Rectangle 1" x="26" y="168" width="12" height="184" rx="5" fill="url(#paint3_linear_0_1)" fill-opacity="0.9"/>
</g>
<g id="Group 1_2">
<rect id="Rectangle 2" x="26" y="38" width="12" height="119" rx="5" fill="url(#paint4_linear_0_1)" fill-opacity="0.9"/>
</g>
<ellipse id="Ellipse 1" cx="148.5" cy="573" rx="215.5" ry="214" fill="url(#paint5_linear_0_1)" fill-opacity="0.4"/>
<rect id="Rectangle 3" x="1229" y="48" width="300" height="300" rx="25" fill="#FFFBFB" fill-opacity="0.9"/>
<g id="placeholder-logo"><g transform="translate(1229,48) translate(0.0,60.0) scale(1.2000)"><g fill="#666666">
  <path d="m88.05,27.65c-3.15,4 -3.2,51.2 -0.05,54.35c2.75,2.75 71.7,3.15 74.45,0.45c2.85,-2.9 2.3,-53.85 -0.65,-55.9c-1.95,-1.35 -7.15,-1.55 -36.95,-1.55l-34.7,0l-2.1,2.65zm69.45,3.35c0.65,0 1,8.6 1,23.75l0,23.75l-33,0l-33,0l-0.25,-23c-0.15,-12.6 -0.1,-23.45 0.15,-24.1c0.35,-0.85 8.9,-1.05 32.25,-0.75c17.55,0.2 32.3,0.35 32.85,0.35z"/>
  <path d="m99.15,37.3c-6.85,7.35 4.25,17.35 11.4,10.25c1.35,-1.35 2.45,-3.65 2.45,-5.05c0,-6.45 -9.35,-9.95 -13.85,-5.2z"/>
  <path d="m135,42.5c-0.7,0.85 -5.25,5.15 -10.1,9.6l-8.85,8.1l-3.2,-3.2l-3.15,-3.15l-6.35,6.3c-5.55,5.5 -6.35,6.75 -6.35,10.05l0,3.8l28.5,0l28.5,0l0,-8.6l0,-8.55l-8.15,-7.7c-9.35,-8.85 -9.15,-8.7 -10.85,-6.65zm7.25,15.2c0.95,0.9 1.75,2.9 1.75,4.45c6.35,-5.05 4.75,-7.15 4.9,-11.55c0.95,0 0,0 0,0l-6.65,7.1z"/>
  <path d="m53.65,110.75c0.1,4.8 0.45,8.65 0.75,8.5c0.35,-0.15 1.3,-0.25 2.1,-0.25c1.1,0 1.5,-1.2 1.5,-4.75l0,-4.75l3.25,5c4.9,7.5 6.2,6.75 6.55,-3.75c0.25,-8.15 0.15,-8.75 -1.7,-8.75c-1.65,0 -2.05,0.8 -2.3,4.75l-0.3,4.75l-2.8,-4.75c-4.85,-8.25 -7.25,-6.9 -7.05,4z"/>
  <path d="m91,108.9c0,9.65 0.3,10.1 6.1,10.1c5.8,0 7.15,-2.65 1.65,-3.2l-3.25,-0.3l-0.3,-6.75c-0.25,-5.95 -0.55,-6.75 -2.25,-6.75c-1.75,0 -1.95,0.7 -1.95,6.9z"/>
  <path d="m151,102.45c0,0.25 1,2.15 2.25,4.2c1.2,2.1 2.45,5.8 2.75,8.25c0.65,5.9 4,6.95 4,1.25c0.05,-2.1 1.25,-5.85 2.95,-8.9l2.9,-5.25l-2.5,0c-1.8,0 -2.8,0.85 -3.75,3.1l-1.3,3.05l-1.25,-3.05c-1.1,-2.6 -6.05,-4.8 -6.05,-2.65z"/>
  <path d="m191,107.45c0,9.05 3.4,8.85 4.25,-0.2c0.45,-5 0.35,-5.25 -1.9,-5.25c-2.2,0 -2.35,0.4 -2.35,5.45z"/>
  <path d="m180.8,104.75c-1.3,5.35 0.65,13.6 3.45,14.35c2.3,0.6 2.75,0.4 2.75,-1.2c0,-1.05 -0.45,-1.9 -1,-1.9c-0.55,0 -1,-1.6 -1,-3.5c0,-1.95 0.45,-3.5 1,-3.5c0.55,0 1,-0.7 1,-1.5c0,-0.85 -0.45,-1.5 -1,-1.5c-0.55,0 -1,-0.7 -1,-1.5c0,-2.1 -3.65,-1.9 -4.2,0.25z"/>
  <path d="m71.55,106.55c-2.2,2.25 -2.05,9.7 0.3,11.8c4.5,4.1 10.15,0.75 10.15,-6.1c0,-4.85 -2,-7.25 -6,-7.25c-1.55,0 -3.55,0.7 -4.45,1.55zm6.25,5.8c0.25,3.05 0,3.65 -1.6,3.65c-2.3,0 -3.25,-2.65 -2.05,-5.85c1.25,-3.35 3.3,-2.1 3.65,2.2z"/>
  <path d="m105.75,106.1c-2.5,1.45 -2.45,9.95 0.1,12.25c4.3,3.9 10.15,0.35 10.15,-6.2c0,-6 -5.15,-9.05 -10.25,-6.05zm6.05,6.25c0.25,3.05 0,3.65 -1.6,3.65c-2.3,0 -3.25,-2.65 -2.05,-5.85c1.25,-3.35 3.3,-2.1 3.65,2.2z"/>
  <path d="m119.2,106.2c-3.8,3.8 -0.4,12.55 4.4,11.35c1.9,-0.45 2.45,-0.3 2.15,0.65c-0.25,0.7 -1.55,1.2 -2.85,1.1c-4.05,-0.3 -5.35,0.45 -3.85,2.25c0.85,1.05 2.6,1.45 5.35,1.25l4.1,-0.3l0.3,-8.75l0.3,-8.75l-4.35,0c-2.4,0 -4.9,0.55 -5.55,1.2zm6.6,4.45c0.4,2.85 -2.15,4.85 -3.75,2.95c-0.9,-1.1 -0.9,-2 -0.05,-3.6c1.35,-2.5 3.4,-2.15 3.8,0.65z"/>
  <path d="m133.55,106.55c-2.2,2.25 -2.05,9.7 0.3,11.8c4.5,4.1 10.15,0.75 10.15,-6.1c0,-4.85 -2,-7.25 -6,-7.25c-1.55,0 -3.55,0.7 -4.45,1.55zm6.25,5.8c0.25,3.05 0,3.65 -1.6,3.65c-2.3,0 -3.25,-2.65 -2.05,-5.85c1.25,-3.35 3.3,-2.1 3.65,2.2z"/>
  <path d="m167.65,106.85c-3.9,4.3 -0.75,13.15 4.7,13.15c2.4,0 5.65,-2.75 5.65,-4.85c0,-1.4 -2.65,-1.55 -3.5,-0.15c-0.95,1.55 -4.5,1.15 -4.5,-0.5c0,-1.1 1.1,-1.5 4,-1.5c3.15,0 4,-0.35 4,-1.8c0,-5.3 -6.85,-8.25 -10.35,-4.35z"/>
  <path d="m191,117.5c0,2.15 0.4,2.6 2.25,2.3c1.5,-0.2 2.25,-1 2.25,-2.3c0,-1.3 -0.75,-2.1 -2.25,-2.3c-1.85,-0.3 -2.25,0.15 -2.25,2.3z"/>
 </g></g></g>
</g>
<defs>
<linearGradient id="paint0_linear_0_1" x1="0" y1="198" x2="1584" y2="198" gradientUnits="userSpaceOnUse">
<stop stop-color="#3D052C"/>
<stop offset="1"/>
</linearGradient>
<linearGradient id="paint1_linear_0_1" x1="323" y1="-224" x2="323" y2="352" gradientUnits="userSpaceOnUse">
<stop stop-color="#28F6F2" stop-opacity="0.4"/>
<stop offset="1" stop-color="#17908E" stop-opacity="0.7"/>
</linearGradient>
<linearGradient id="paint2_linear_0_1" x1="148.5" y1="38" x2="148.5" y2="140" gradientUnits="userSpaceOnUse">
<stop stop-color="white"/>
<stop offset="1" stop-color="#999999"/>
</linearGradient>
<linearGradient id="paint3_linear_0_1" x1="38" y1="260" x2="26" y2="260" gradientUnits="userSpaceOnUse">
<stop stop-color="#D9D9D9"/>
<stop offset="1" stop-color="#737373"/>
</linearGradient>
<linearGradient id="paint4_linear_0_1" x1="38" y1="97.5" x2="26" y2="97.5" gradientUnits="userSpaceOnUse">
<stop stop-color="#D9D9D9"/>
<stop offset="1" stop-color="#737373"/>
</linearGradient>
<linearGradient id="paint5_linear_0_1" x1="27.5" y1="434.5" x2="148.5" y2="787" gradientUnits="userSpaceOnUse">
<stop stop-color="#2E21BC"/>
<stop offset="1" stop-color="#150F56"/>
</linearGradient>
<clipPath id="clip0_0_1">
<rect width="1584" height="396" fill="white"/>
</clipPath>
</defs>
</svg>
